<svg width="14" height="15" viewBox="0 0 14 15" fill="none" xmlns="http://www.w3.org/2000/svg">
<path fill-rule="evenodd" clip-rule="evenodd" d="M10.3359 9.94962L13.7871 13.6626C14.0791 13.9768 14.0694 14.4776 13.766 14.7796C13.6232 14.9218 13.4351 15 13.2368 15C13.0273 15 12.8318 14.9139 12.6864 14.7578L9.20899 11.0166C8.22158 11.7344 7.06667 12.1125 5.85474 12.1125C2.62649 12.1125 0 9.3956 0 6.05624C0 2.71688 2.62649 0 5.85474 0C9.08299 0 11.7095 2.71688 11.7095 6.05624C11.7095 7.48552 11.2233 8.85844 10.3359 9.94962ZM10.1821 6.05624C10.1821 3.58793 8.24092 1.57989 5.85474 1.57989C3.46855 1.57989 1.52732 3.58793 1.52732 6.05624C1.52732 8.52456 3.46855 10.5326 5.85474 10.5326C8.24092 10.5326 10.1821 8.52456 10.1821 6.05624Z" fill="#A9ACB1"/>
</svg>
